# xmcd
#
# Track frame offsets: 
#        150
#        13463
#        26261
#        38611
#        53800
#        70401
#        114492
#        126416
#        143079
#        159589
#        190736
#        207718
#        222838
#        247357
#        260871
#        275640
#
# Disc length: 3989 seconds
#
# Revision: 1
# Processed by: cddbd v1.5.2PL0 Copyright (c) Steve Scherf et al.
# Submitted via: ExactAudioCopy v0.95b3
#
DISCID=020f9310
DTITLE=Various Artist - When Blues Met Rock
DYEAR=2008
DGENRE=Blues
TTITLE0=Elmore James - Dust My Broom
TTITLE1=Fleetwood Mac - Black Magic Woman
TTITLE2=The Animals - Bring It On Home To Me
TTITLE3=Canned Heat - On The Road Again
TTITLE4=The Yardbirds - I Ain't Done Wrong
TTITLE5=Van Morrison - T.B. Sheets
TTITLE6=Sonny Boy Williamson - Bring It On Home
TTITLE7=Stevie Ray Vaughan And Double Trouble - Pride And Joy
TTITLE8=The Paul Butterfield Blues Band - One More Heartache
TTITLE9=Mike Bloomfield With Al Kooper - Albert's Shuffle
TTITLE10=The Allman Brothers Band - Trouble No More
TTITLE11=Jethro Tull - A Song For Jeffrey
TTITLE12=B.B. King - The Thrill is Gone
TTITLE13=Taj Mahal - Statesboro Blues
TTITLE14=Chicken Shack - I'd Rather Go Blind
TTITLE15=Johnny Winter - Be Careful With A Fool
EXTD=
EXTT0=
EXTT1=
EXTT2=
EXTT3=
EXTT4=
EXTT5=
EXTT6=
EXTT7=
EXTT8=
EXTT9=
EXTT10=
EXTT11=
EXTT12=
EXTT13=
EXTT14=
EXTT15=
PLAYORDER=
